<svg xmlns="http://www.w3.org/2000/svg" width="12" height="12" viewBox="0 0 12 12" fill="none">
  <path fill-rule="evenodd" clip-rule="evenodd"
    d="M7.37575 3.17567C7.48827 3.06319 7.64085 3 7.79995 3C7.95905 3 8.11163 3.06319 8.22415 3.17567L10.6242 5.57567C10.7366 5.68819 10.7998 5.84077 10.7998 5.99987C10.7998 6.15897 10.7366 6.31155 10.6242 6.42407L8.22415 8.82407C8.11099 8.93337 7.95943 8.99384 7.80211 8.99248C7.64479 8.99111 7.4943 8.92801 7.38306 8.81676C7.27181 8.70552 7.20871 8.55503 7.20735 8.39771C7.20598 8.24039 7.26646 8.08883 7.37575 7.97567L8.75155 6.59987H1.79995C1.64082 6.59987 1.48821 6.53666 1.37569 6.42414C1.26317 6.31161 1.19995 6.159 1.19995 5.99987C1.19995 5.84074 1.26317 5.68813 1.37569 5.57561C1.48821 5.46309 1.64082 5.39987 1.79995 5.39987H8.75155L7.37575 4.02407C7.26327 3.91156 7.20008 3.75897 7.20008 3.59987C7.20008 3.44077 7.26327 3.28819 7.37575 3.17567Z"
    fill="#616D8D" />
</svg>